<svg width="45" height="44" viewBox="0 0 45 44" fill="none" xmlns="http://www.w3.org/2000/svg">
<path d="M15.1641 7.33331L12.4141 10.0833" stroke="#4EDFD4" stroke-width="2.75" stroke-linecap="round" stroke-linejoin="round"/>
<path d="M12.4141 4.58331L15.1641 7.33331" stroke="#4EDFD4" stroke-width="2.75" stroke-linecap="round" stroke-linejoin="round"/>
<path d="M15.1667 7.33331H11.5C8.46217 7.33331 6 9.79548 6 12.8333" stroke="#4EDFD4" stroke-width="2.75" stroke-linecap="round" stroke-linejoin="round"/>
<path d="M29.8359 36.6667L32.5859 33.9167" stroke="#4EDFD4" stroke-width="2.75" stroke-linecap="round" stroke-linejoin="round"/>
<path d="M32.5859 39.4167L29.8359 36.6667" stroke="#4EDFD4" stroke-width="2.75" stroke-linecap="round" stroke-linejoin="round"/>
<path d="M29.8359 36.6667H33.5026C36.5404 36.6667 39.0026 34.2045 39.0026 31.1667" stroke="#4EDFD4" stroke-width="2.75" stroke-linecap="round" stroke-linejoin="round"/>
<path d="M34.2138 10.2869C38.1353 14.2084 38.1353 20.625 34.2138 24.5465C33.9003 24.86 33.5574 25.1222 33.2109 25.377" stroke="#0C0C0C" stroke-width="2.75" stroke-linecap="round" stroke-linejoin="round"/>
<path d="M34.2087 10.2869C30.2872 6.36539 23.8705 6.36539 19.949 10.2869C19.6374 10.5986 19.3697 10.9377 19.1094 11.2806" stroke="#0C0C0C" stroke-width="2.75" stroke-linecap="round" stroke-linejoin="round"/>
<path d="M28.0026 26.5833C28.0026 32.153 23.4889 36.6667 17.9193 36.6667C12.3496 36.6667 7.83594 32.153 7.83594 26.5833C7.83594 21.0137 12.3496 16.5 17.9193 16.5C23.4889 16.5 28.0026 21.0137 28.0026 26.5833" stroke="#0C0C0C" stroke-width="2.75" stroke-linecap="round" stroke-linejoin="round"/>
<path fill-rule="evenodd" clip-rule="evenodd" d="M19.7969 30.6863H14.9844V26.5613H19.795C20.9354 26.5613 21.8575 27.4853 21.8575 28.6238V28.6238C21.8594 29.7641 20.9372 30.6863 19.7969 30.6863Z" stroke="#0C0C0C" stroke-width="2.75" stroke-linecap="round" stroke-linejoin="round"/>
<path d="M14.9844 26.5613V22.3062H19.2762C20.4514 22.3062 21.4029 23.2577 21.4029 24.4347V24.4347C21.4029 25.6098 20.4514 26.5613 19.2762 26.5613" stroke="#0C0C0C" stroke-width="2.75" stroke-linecap="round" stroke-linejoin="round"/>
</svg>
